<svg xmlns="http://www.w3.org/2000/svg" xmlns:xlink="http://www.w3.org/1999/xlink" width="500" zoomAndPan="magnify" viewBox="0 0 375 374.999991" height="500" preserveAspectRatio="xMidYMid meet" version="1.0"><defs><filter x="0%" y="0%" width="100%" height="100%" id="c85378cf73"><feColorMatrix values="0 0 0 0 1 0 0 0 0 1 0 0 0 0 1 0 0 0 1 0" color-interpolation-filters="sRGB"/></filter><g/><mask id="e5cfc10a96"><g filter="url(#c85378cf73)"><rect x="-37.5" width="450" fill="#000000" y="-37.499999" height="449.999989" fill-opacity="0.9765"/></g></mask><clipPath id="a8b303cd92"><path d="M 1.386719 0.382812 L 344.980469 0.382812 L 344.980469 190.226562 L 1.386719 190.226562 Z M 1.386719 0.382812 " clip-rule="nonzero"/></clipPath><clipPath id="6da1d1263d"><rect x="0" width="346" y="0" height="191"/></clipPath><mask id="d662328abf"><g filter="url(#c85378cf73)"><rect x="-37.5" width="450" fill="#000000" y="-37.499999" height="449.999989" fill-opacity="0.9765"/></g></mask><clipPath id="1b26a126c4"><path d="M 70.242188 0.382812 L 344.980469 0.382812 L 344.980469 190.226562 L 70.242188 190.226562 Z M 70.242188 0.382812 " clip-rule="nonzero"/></clipPath><clipPath id="954e9e3dd9"><rect x="0" width="346" y="0" height="191"/></clipPath></defs><g fill="#ffffff" fill-opacity="1"><g transform="translate(51.267251, 219.071537)"><g><path d="M 8.769531 -1.578125 L 8.769531 0 L 86.457031 0 L 86.457031 -1.578125 C 73.65625 -1.578125 65.765625 -8.59375 65.765625 -20.167969 L 65.765625 -71.027344 L 125.742188 -71.027344 L 125.742188 -20.167969 C 125.742188 -8.59375 117.851562 -1.578125 105.046875 -1.578125 L 105.046875 0 L 182.738281 0 L 182.738281 -1.578125 C 169.9375 -1.578125 162.042969 -8.59375 162.042969 -20.167969 L 162.042969 -131.003906 C 162.042969 -142.578125 169.9375 -149.59375 182.738281 -149.59375 L 182.738281 -151.171875 L 105.046875 -151.171875 L 105.046875 -149.59375 C 117.851562 -149.59375 125.742188 -142.578125 125.742188 -131.003906 L 125.742188 -72.605469 L 65.765625 -72.605469 L 65.765625 -131.003906 C 65.765625 -142.578125 73.65625 -149.59375 86.457031 -149.59375 L 86.457031 -151.171875 L 8.769531 -151.171875 L 8.769531 -149.59375 C 21.570312 -149.59375 29.460938 -142.578125 29.460938 -131.003906 L 29.460938 -20.167969 C 29.460938 -8.59375 21.570312 -1.578125 8.769531 -1.578125 Z M 8.769531 -1.578125 "/></g></g></g><g mask="url(#e5cfc10a96)"><g transform="matrix(1, 0, 0, 1, 6, 113)"><g clip-path="url(#6da1d1263d)"><g clip-path="url(#a8b303cd92)"><path fill="#ffffff" d="M 61.125 105.039062 C 59.027344 105.652344 56.871094 106.121094 54.675781 106.433594 C 52.507812 106.742188 50.300781 106.902344 48.070312 106.902344 C 35.199219 106.902344 23.546875 101.664062 15.109375 93.195312 C 6.675781 84.726562 1.457031 73.027344 1.457031 60.101562 C 1.457031 47.179688 6.675781 35.476562 15.109375 27.007812 C 23.546875 18.539062 35.199219 13.300781 48.070312 13.300781 C 55.226562 13.300781 62.007812 14.921875 68.070312 17.816406 C 74.367188 20.824219 79.886719 25.207031 84.242188 30.582031 C 97.429688 46.628906 108.175781 63.46875 118.914062 80.296875 C 141.035156 114.96875 163.132812 149.589844 206.316406 176.636719 C 210.257812 178.796875 214.378906 180.675781 218.648438 182.246094 C 228.535156 185.882812 239.21875 187.871094 250.371094 187.871094 C 275.828125 187.871094 298.875 177.507812 315.558594 160.761719 C 332.242188 144.011719 342.558594 120.871094 342.558594 95.3125 C 342.558594 69.75 332.238281 46.609375 315.558594 29.859375 C 299.777344 14.015625 278.304688 3.890625 254.480469 2.84375 C 256.351562 4.203125 257.574219 6.417969 257.574219 8.917969 C 257.574219 13.058594 254.230469 16.410156 250.109375 16.410156 C 245.984375 16.410156 242.644531 13.058594 242.644531 8.917969 C 242.644531 5.316406 245.179688 2.304688 248.554688 1.585938 L 248.535156 0.410156 L 250.363281 0.386719 C 276.46875 0.386719 300.109375 11.015625 317.21875 28.191406 C 334.324219 45.371094 344.910156 69.097656 344.910156 95.3125 C 344.910156 121.523438 334.324219 145.257812 317.21875 162.433594 C 300.109375 179.613281 276.472656 190.238281 250.363281 190.238281 C 238.9375 190.238281 227.980469 188.199219 217.832031 184.46875 C 207.320312 180.597656 197.675781 174.910156 189.289062 167.777344 C 155.734375 142.375 136.347656 111.996094 116.933594 81.574219 C 106.222656 64.792969 95.507812 48 82.425781 32.082031 L 83.328125 31.335938 L 82.417969 32.078125 C 78.285156 26.976562 73.046875 22.816406 67.066406 19.960938 C 61.3125 17.210938 54.867188 15.671875 48.066406 15.671875 C 35.84375 15.671875 24.777344 20.644531 16.765625 28.6875 C 8.757812 36.730469 3.804688 47.839844 3.804688 60.113281 C 3.804688 72.386719 8.757812 83.496094 16.765625 91.539062 C 24.777344 99.578125 35.84375 104.554688 48.066406 104.554688 C 50.210938 104.554688 52.308594 104.402344 54.34375 104.113281 C 56.441406 103.816406 58.484375 103.371094 60.460938 102.789062 L 61.113281 105.050781 Z M 61.125 105.039062 " fill-opacity="1" fill-rule="nonzero"/></g></g></g></g><g mask="url(#d662328abf)"><g transform="matrix(1, 0, 0, 1, 6, 113)"><g clip-path="url(#954e9e3dd9)"><g clip-path="url(#1b26a126c4)"><path fill="#ffffff" d="M 61.125 105.039062 C 59.027344 105.652344 56.871094 106.121094 54.675781 106.433594 C 52.507812 106.742188 50.300781 106.902344 48.070312 106.902344 C 35.199219 106.902344 23.546875 101.664062 15.109375 93.195312 C 6.675781 84.726562 1.457031 73.027344 1.457031 60.101562 C 1.457031 47.179688 6.675781 35.476562 15.109375 27.007812 C 23.546875 18.539062 35.199219 13.300781 48.070312 13.300781 C 55.226562 13.300781 62.007812 14.921875 68.070312 17.816406 C 74.367188 20.824219 79.886719 25.207031 84.242188 30.582031 C 97.429688 46.628906 108.175781 63.46875 118.914062 80.296875 C 141.035156 114.96875 163.132812 149.589844 206.316406 176.636719 C 210.257812 178.796875 214.378906 180.675781 218.648438 182.246094 C 228.535156 185.882812 239.21875 187.871094 250.371094 187.871094 C 275.828125 187.871094 298.875 177.507812 315.558594 160.761719 C 332.242188 144.011719 342.558594 120.871094 342.558594 95.3125 C 342.558594 69.75 332.238281 46.609375 315.558594 29.859375 C 299.777344 14.015625 278.304688 3.890625 254.480469 2.84375 C 256.351562 4.203125 257.574219 6.417969 257.574219 8.917969 C 257.574219 13.058594 254.230469 16.410156 250.109375 16.410156 C 245.984375 16.410156 242.644531 13.058594 242.644531 8.917969 C 242.644531 5.316406 245.179688 2.304688 248.554688 1.585938 L 248.535156 0.410156 L 250.363281 0.386719 C 276.46875 0.386719 300.109375 11.015625 317.21875 28.191406 C 334.324219 45.371094 344.910156 69.097656 344.910156 95.3125 C 344.910156 121.523438 334.324219 145.257812 317.21875 162.433594 C 300.109375 179.613281 276.472656 190.238281 250.363281 190.238281 C 238.9375 190.238281 227.980469 188.199219 217.832031 184.46875 C 207.320312 180.597656 197.675781 174.910156 189.289062 167.777344 C 155.734375 142.375 136.347656 111.996094 116.933594 81.574219 C 106.222656 64.792969 95.507812 48 82.425781 32.082031 L 83.328125 31.335938 L 82.417969 32.078125 C 78.285156 26.976562 73.046875 22.816406 67.066406 19.960938 C 61.3125 17.210938 54.867188 15.671875 48.066406 15.671875 C 35.84375 15.671875 24.777344 20.644531 16.765625 28.6875 C 8.757812 36.730469 3.804688 47.839844 3.804688 60.113281 C 3.804688 72.386719 8.757812 83.496094 16.765625 91.539062 C 24.777344 99.578125 35.84375 104.554688 48.066406 104.554688 C 50.210938 104.554688 52.308594 104.402344 54.34375 104.113281 C 56.441406 103.816406 58.484375 103.371094 60.460938 102.789062 L 61.113281 105.050781 Z M 61.125 105.039062 " fill-opacity="1" fill-rule="nonzero"/></g></g></g></g><g fill="#ffffff" fill-opacity="1"><g transform="translate(69.526056, 246.360087)"><g><path d="M 2.589844 0 L 2.589844 -5.425781 L 8.105469 -5.425781 L 8.105469 0 L 9.351562 0 L 9.351562 -12.136719 L 8.105469 -12.136719 L 8.105469 -6.675781 L 2.589844 -6.675781 L 2.589844 -12.136719 L 1.339844 -12.136719 L 1.339844 0 Z M 2.589844 0 "/></g></g></g><g fill="#ffffff" fill-opacity="1"><g transform="translate(92.929281, 246.360087)"><g><path d="M 2.589844 0 L 2.589844 -12.136719 L 1.339844 -12.136719 L 1.339844 0 Z M 2.589844 0 "/></g></g></g><g fill="#ffffff" fill-opacity="1"><g transform="translate(109.568258, 246.360087)"><g><path d="M 2.714844 -1.160156 L 9.90625 -12.136719 L 0.820312 -12.136719 L 0.820312 -10.976562 L 7.640625 -10.976562 L 0.445312 0 L 9.601562 0 L 9.601562 -1.160156 Z M 2.714844 -1.160156 "/></g></g></g><g fill="#ffffff" fill-opacity="1"><g transform="translate(132.632373, 246.360087)"><g><path d="M 2.589844 0 L 2.589844 -5.695312 L 6.675781 0 L 8.28125 0 L 3.820312 -6.070312 L 8.28125 -12.136719 L 6.675781 -12.136719 L 2.589844 -6.425781 L 2.589844 -12.136719 L 1.339844 -12.136719 L 1.339844 0 Z M 2.589844 0 "/></g></g></g><g fill="#ffffff" fill-opacity="1"><g transform="translate(153.80464, 246.360087)"><g><path d="M 2.589844 0 L 2.589844 -12.136719 L 1.339844 -12.136719 L 1.339844 0 Z M 2.589844 0 "/></g></g></g><g fill="#ffffff" fill-opacity="1"><g transform="translate(170.443621, 246.360087)"><g><path d="M 3.300781 -4.460938 L 5.515625 -10.050781 L 7.710938 -4.460938 Z M 10.835938 0 L 5.515625 -12.976562 L 0.179688 0 L 1.535156 0 L 2.839844 -3.300781 L 8.175781 -3.300781 L 9.476562 0 Z M 10.835938 0 "/></g></g></g><g fill="#ffffff" fill-opacity="1"><g transform="translate(78.865899, 271.110085)"><g><path d="M 2.589844 -5.996094 L 2.589844 -10.941406 L 5.410156 -10.941406 C 6.140625 -10.941406 6.730469 -10.710938 7.175781 -10.246094 C 7.605469 -9.78125 7.835938 -9.210938 7.835938 -8.496094 C 7.835938 -7.78125 7.605469 -7.195312 7.140625 -6.710938 C 6.675781 -6.230469 6.105469 -5.996094 5.410156 -5.996094 Z M 9.085938 -8.480469 C 9.085938 -9.515625 8.691406 -10.40625 7.941406 -11.101562 C 7.210938 -11.78125 6.300781 -12.136719 5.230469 -12.136719 L 1.339844 -12.136719 L 1.339844 0 L 2.589844 0 L 2.589844 -4.800781 L 4.035156 -4.800781 L 7.605469 0 L 9.28125 0 L 5.535156 -4.800781 C 6.480469 -4.855469 7.28125 -5.195312 7.941406 -5.820312 C 8.691406 -6.515625 9.085938 -7.40625 9.085938 -8.480469 Z M 9.085938 -8.480469 "/></g></g></g><g fill="#ffffff" fill-opacity="1"><g transform="translate(101.287507, 271.110085)"><g><path d="M 8.550781 0 L 8.550781 -1.160156 L 2.589844 -1.160156 L 2.589844 -5.480469 L 8.371094 -5.480469 L 8.371094 -6.65625 L 2.589844 -6.65625 L 2.589844 -10.976562 L 8.550781 -10.976562 L 8.550781 -12.136719 L 1.339844 -12.136719 L 1.339844 0 Z M 8.550781 0 "/></g></g></g><g fill="#ffffff" fill-opacity="1"><g transform="translate(123.887585, 271.110085)"><g><path d="M 2.589844 -6.015625 L 2.589844 -10.941406 L 5.410156 -10.941406 C 6.140625 -10.941406 6.730469 -10.710938 7.175781 -10.265625 C 7.605469 -9.800781 7.835938 -9.226562 7.835938 -8.515625 C 7.835938 -7.78125 7.605469 -7.195312 7.140625 -6.710938 C 6.675781 -6.246094 6.105469 -6.015625 5.410156 -6.015625 Z M 9.085938 -8.480469 C 9.085938 -9.550781 8.691406 -10.425781 7.941406 -11.121094 C 7.195312 -11.800781 6.300781 -12.136719 5.230469 -12.136719 L 1.339844 -12.136719 L 1.339844 0 L 2.589844 0 L 2.589844 -4.800781 L 5.230469 -4.800781 C 6.300781 -4.800781 7.210938 -5.140625 7.941406 -5.820312 C 8.691406 -6.53125 9.085938 -7.40625 9.085938 -8.480469 Z M 9.085938 -8.480469 "/></g></g></g><g fill="#ffffff" fill-opacity="1"><g transform="translate(146.041472, 271.110085)"><g><path d="M 2.589844 -6.015625 L 2.589844 -10.941406 L 5.410156 -10.941406 C 6.140625 -10.941406 6.730469 -10.710938 7.175781 -10.265625 C 7.605469 -9.800781 7.835938 -9.226562 7.835938 -8.515625 C 7.835938 -7.78125 7.605469 -7.195312 7.140625 -6.710938 C 6.675781 -6.246094 6.105469 -6.015625 5.410156 -6.015625 Z M 9.085938 -8.480469 C 9.085938 -9.550781 8.691406 -10.425781 7.941406 -11.121094 C 7.195312 -11.800781 6.300781 -12.136719 5.230469 -12.136719 L 1.339844 -12.136719 L 1.339844 0 L 2.589844 0 L 2.589844 -4.800781 L 5.230469 -4.800781 C 6.300781 -4.800781 7.210938 -5.140625 7.941406 -5.820312 C 8.691406 -6.53125 9.085938 -7.40625 9.085938 -8.480469 Z M 9.085938 -8.480469 "/></g></g></g><g fill="#ffffff" fill-opacity="1"><g transform="translate(168.195355, 271.110085)"><g><path d="M 2.589844 0 L 2.589844 -12.136719 L 1.339844 -12.136719 L 1.339844 0 Z M 2.589844 0 "/></g></g></g><g fill="#ffffff" fill-opacity="1"><g transform="translate(205.80711, 270.240985)"><g><path d="M 7.539062 -1.355469 L 7.539062 0 L 72.667969 0 L 72.667969 -1.355469 C 61.363281 -1.355469 56.535156 -6.332031 56.535156 -17.035156 L 56.535156 -62.113281 L 73.722656 -62.113281 C 84.578125 -62.113281 81.414062 -55.332031 90.460938 -32.113281 C 99.804688 -8.140625 110.511719 0 121.816406 0 L 148.957031 0 L 148.957031 -1.355469 C 135.386719 -1.355469 128.902344 -7.839844 121.214844 -32.113281 C 113.828125 -55.332031 106.742188 -62.113281 85.484375 -63.320312 C 103.726562 -66.335938 120.160156 -76.4375 120.160156 -96.488281 C 120.160156 -120.761719 97.242188 -129.960938 72.820312 -129.960938 L 7.539062 -129.960938 L 7.539062 -128.601562 L 9.347656 -128.601562 C 13.871094 -128.453125 25.328125 -126.492188 25.328125 -112.621094 L 25.328125 -17.339844 C 25.328125 -6.332031 18.84375 -1.355469 7.539062 -1.355469 Z M 72.820312 -63.621094 L 56.535156 -63.621094 L 56.535156 -128.601562 L 72.820312 -128.601562 C 83.675781 -128.601562 89.402344 -114.730469 89.402344 -96.488281 C 89.402344 -78.097656 83.675781 -63.621094 72.820312 -63.621094 Z M 72.820312 -63.621094 "/></g></g></g></svg>